<?xml version="1.0" encoding="UTF-8"?>
<svg width="36" height="36" xmlns="http://www.w3.org/2000/svg" xmlns:xlink="http://www.w3.org/1999/xlink" viewBox="0 0 20 40" version="1.1">
<g id="surface1">
<path style=" stroke:none;fill-rule:nonzero;fill:rgb(100%,74.509804%,0%);fill-opacity:1;" d="M 19.089844 9.820312 L 18.304688 9.820312 C 18.304688 7.398438 15.71875 5.4375 14.1875 5.4375 L 5.804688 5.4375 C 4.273438 5.4375 1.6875 7.398438 1.6875 9.820312 L 0.902344 9.820312 C 0.40625 9.820312 0 10.222656 0 10.722656 L 0 11.859375 L 3.152344 11.859375 C 3.152344 9.285156 5.238281 7.203125 7.808594 7.203125 L 12.191406 7.203125 C 14.761719 7.203125 16.847656 9.285156 16.847656 11.859375 L 20 11.859375 L 20 10.722656 C 20 10.226562 19.597656 9.820312 19.097656 9.820312 C 19.09375 9.820312 19.089844 9.820312 19.089844 9.820312 Z M 19.089844 9.820312 "/>
<path style=" stroke:none;fill-rule:nonzero;fill:rgb(100%,74.509804%,0%);fill-opacity:1;" d="M 19.089844 15.609375 L 18.304688 15.609375 C 18.304688 18.027344 15.71875 19.992188 14.1875 19.992188 L 5.804688 19.992188 C 4.273438 19.992188 1.6875 18.03125 1.6875 15.609375 L 0.902344 15.609375 C 0.40625 15.609375 0 15.203125 0 14.703125 L 0 13.566406 L 3.152344 13.566406 C 3.152344 16.140625 5.238281 18.222656 7.808594 18.222656 L 12.191406 18.222656 C 14.761719 18.222656 16.847656 16.140625 16.847656 13.566406 L 20 13.566406 L 20 14.703125 C 20 15.199219 19.597656 15.605469 19.097656 15.609375 C 19.09375 15.609375 19.089844 15.609375 19.089844 15.609375 Z M 19.089844 15.609375 "/>
<path style=" stroke:none;fill-rule:nonzero;fill:rgb(100%,100%,100%);fill-opacity:1;" d="M 7.414062 11.738281 L 7.414062 13.027344 L 8.949219 11.738281 Z M 7.414062 11.738281 "/>
<path style=" stroke:none;fill-rule:nonzero;fill:rgb(100%,100%,100%);fill-opacity:1;" d="M 9.34375 13.660156 L 9.34375 12.375 L 7.808594 13.660156 Z M 9.34375 13.660156 "/>
<path style=" stroke:none;fill-rule:nonzero;fill:rgb(100%,100%,100%);fill-opacity:1;" d="M 12.820312 10.167969 L 7.171875 10.167969 C 6.292969 10.167969 5.578125 10.882812 5.578125 11.765625 L 5.578125 13.664062 C 5.578125 14.546875 6.292969 15.257812 7.171875 15.257812 L 12.820312 15.257812 C 13.699219 15.257812 14.414062 14.542969 14.414062 13.664062 L 14.414062 11.761719 C 14.414062 10.882812 13.699219 10.167969 12.820312 10.167969 Z M 10.078125 13.699219 C 10.078125 13.824219 10.042969 13.953125 9.980469 14.058594 C 9.917969 14.171875 9.832031 14.265625 9.726562 14.335938 C 9.625 14.410156 9.5 14.445312 9.375 14.445312 L 7.382812 14.445312 C 7.257812 14.445312 7.132812 14.410156 7.03125 14.335938 C 6.925781 14.265625 6.835938 14.171875 6.777344 14.058594 C 6.710938 13.949219 6.679688 13.824219 6.679688 13.699219 L 6.679688 11.699219 C 6.679688 11.574219 6.710938 11.453125 6.777344 11.34375 C 6.835938 11.238281 6.925781 11.148438 7.03125 11.082031 C 7.136719 11.015625 7.257812 10.984375 7.382812 10.984375 L 9.375 10.984375 C 9.5 10.984375 9.621094 11.015625 9.726562 11.082031 C 9.832031 11.148438 9.917969 11.238281 9.980469 11.34375 C 10.042969 11.453125 10.078125 11.574219 10.078125 11.699219 Z M 13.308594 14.445312 L 12.574219 14.445312 L 12.574219 12.105469 L 12.417969 12.300781 L 11.445312 12.300781 L 12.550781 10.984375 L 13.3125 10.984375 Z M 13.308594 14.445312 "/>
<path style=" stroke:none;fill-rule:nonzero;fill:rgb(100%,74.509804%,0%);fill-opacity:1;" d="M 9.433594 3.34375 L 10.554688 3.34375 L 10.554688 6.378906 L 9.433594 6.378906 Z M 9.433594 3.34375 "/>
<path style=" stroke:none;fill-rule:nonzero;fill:rgb(100%,74.509804%,0%);fill-opacity:1;" d="M 11.695312 1.707031 C 11.695312 2.648438 10.933594 3.410156 9.996094 3.410156 C 9.058594 3.410156 8.296875 2.648438 8.296875 1.707031 C 8.296875 0.769531 9.058594 0.0078125 9.996094 0.0078125 C 10.933594 0.0078125 11.695312 0.769531 11.695312 1.707031 Z M 11.695312 1.707031 "/>
</g>
</svg>
