<?xml version="1.0" encoding="utf-8"?>
<svg viewBox="14.175 162.061 471.083 137.852" xmlns="http://www.w3.org/2000/svg">
  <path class="st0" d="M 145.844 229.745 L 140.437 229.745 C 140.437 213.049 122.596 199.505 112.029 199.505 L 54.225 199.505 C 43.658 199.505 25.817 213.031 25.817 229.745 L 20.41 229.745 C 16.975 229.745 14.175 232.528 14.175 235.98 L 14.175 243.8 L 35.926 243.8 C 35.926 226.064 50.298 211.693 68.033 211.693 L 98.274 211.693 C 116.009 211.693 130.381 226.064 130.381 243.8 L 152.132 243.8 L 152.132 235.98 C 152.132 232.546 149.349 229.745 145.897 229.745 C 145.88 229.745 145.862 229.745 145.844 229.745 Z" style="fill: rgb(55, 79, 232);" transform="matrix(1, 0, 0, 1, 5.684341886080802e-14, 0)"/>
  <path class="st0" d="M 145.844 269.672 L 140.437 269.672 C 140.437 286.369 122.596 299.913 112.029 299.913 L 54.225 299.913 C 43.658 299.913 25.817 286.387 25.817 269.672 L 20.41 269.672 C 16.975 269.672 14.175 266.89 14.175 263.438 L 14.175 255.6 L 35.926 255.6 C 35.926 273.336 50.298 287.707 68.033 287.707 L 98.274 287.707 C 116.009 287.707 130.381 273.336 130.381 255.6 L 152.132 255.6 L 152.132 263.42 C 152.132 266.854 149.349 269.655 145.915 269.672 C 145.88 269.672 145.862 269.672 145.844 269.672 Z" style="fill: rgb(55, 79, 232);" transform="matrix(1, 0, 0, 1, 5.684341886080802e-14, 0)"/>
  <polygon class="st1" points="65.321 242.972 65.321 251.866 75.906 242.972" style="fill: rgb(55, 79, 232);" transform="matrix(1, 0, 0, 1, 5.684341886080802e-14, 0)"/>
  <polygon class="st1" points="78.618 256.234 78.618 247.358 68.051 256.234" style="fill: rgb(55, 79, 232);" transform="matrix(1, 0, 0, 1, 5.684341886080802e-14, 0)"/>
  <path class="st1" d="M 102.606 232.158 L 63.648 232.158 C 57.572 232.158 52.64 237.09 52.64 243.166 L 52.64 256.27 C 52.64 262.346 57.572 267.26 63.648 267.26 L 102.606 267.26 C 108.682 267.26 113.614 262.328 113.614 256.252 L 113.614 243.148 C 113.614 237.09 108.682 232.158 102.606 232.158 Z M 83.691 256.516 C 83.691 257.379 83.462 258.242 83.021 258.982 C 82.599 259.757 82 260.408 81.26 260.902 C 80.556 261.395 79.71 261.659 78.847 261.641 L 65.092 261.641 C 64.229 261.641 63.384 261.395 62.679 260.902 C 61.957 260.408 61.341 259.757 60.918 258.982 C 60.478 258.224 60.249 257.379 60.249 256.516 L 60.249 242.708 C 60.249 241.845 60.478 241 60.918 240.26 C 61.341 239.52 61.957 238.904 62.679 238.463 C 63.401 238.006 64.247 237.777 65.092 237.777 L 78.847 237.777 C 79.71 237.777 80.538 238.006 81.26 238.463 C 81.982 238.921 82.581 239.538 83.021 240.26 C 83.462 241 83.691 241.845 83.691 242.708 L 83.691 256.516 Z M 105.988 261.659 L 100.915 261.659 L 100.915 245.508 L 99.841 246.865 L 93.113 246.865 L 100.739 237.777 L 106.005 237.777 L 105.988 261.659 Z" style="fill: rgb(55, 79, 232);" transform="matrix(1, 0, 0, 1, 5.684341886080802e-14, 0)"/>
  <rect x="79.252" y="185.063" class="st0" width="7.732" height="20.959" style="fill: rgb(55, 79, 232);" transform="matrix(1, 0, 0, 1, 5.684341886080802e-14, 0)"/>
  <circle class="st0" cx="83.127" cy="173.791" r="11.73" style="fill: rgb(55, 79, 232);" transform="matrix(1, 0, 0, 1, 5.684341886080802e-14, 0)"/>
  <path class="st1" d="M 162.58 234.167 L 186.744 234.167 C 187.73 234.149 188.716 234.413 189.562 234.924 C 190.407 235.417 191.094 236.122 191.587 236.95 C 192.098 237.813 192.345 238.781 192.345 239.785 L 192.345 246.126 C 192.345 246.496 192.309 246.883 192.239 247.253 C 192.168 247.623 192.045 247.957 191.887 248.292 C 192.397 248.996 192.838 249.754 193.208 250.564 C 193.507 251.233 193.666 251.955 193.666 252.695 L 193.666 259.652 C 193.683 260.638 193.419 261.624 192.908 262.47 C 192.415 263.315 191.711 264.02 190.848 264.495 C 189.985 265.006 188.998 265.253 187.994 265.253 L 162.58 265.253 L 162.58 234.167 Z M 168.321 247.077 L 186.621 247.077 C 186.902 247.077 187.167 246.953 187.343 246.76 C 187.536 246.566 187.642 246.284 187.642 246.002 L 187.642 239.909 C 187.642 239.627 187.536 239.363 187.343 239.151 C 187.167 238.94 186.902 238.834 186.621 238.834 L 168.321 238.834 C 167.723 238.852 167.247 239.327 167.247 239.909 L 167.247 246.002 C 167.247 246.584 167.74 247.059 168.321 247.077 Z M 168.321 260.585 L 187.924 260.585 C 188.206 260.585 188.47 260.462 188.646 260.268 C 188.84 260.075 188.945 259.793 188.945 259.511 L 188.945 252.818 C 188.945 252.537 188.84 252.272 188.646 252.061 C 188.47 251.85 188.206 251.744 187.924 251.744 L 168.321 251.744 C 167.723 251.762 167.247 252.237 167.247 252.818 L 167.247 259.511 C 167.247 260.11 167.74 260.585 168.321 260.585 Z" style="fill: rgb(55, 79, 232);" transform="matrix(1, 0, 0, 1, 5.684341886080802e-14, 0)"/>
  <path class="st1" d="M 209.076 265.235 C 208.09 265.253 207.104 264.988 206.241 264.478 C 205.395 263.985 204.708 263.28 204.215 262.452 C 203.705 261.589 203.458 260.621 203.458 259.634 L 203.458 239.785 C 203.44 238.799 203.705 237.813 204.215 236.95 C 204.708 236.104 205.413 235.417 206.241 234.924 C 207.104 234.413 208.072 234.149 209.076 234.167 L 228.925 234.167 C 229.912 234.149 230.898 234.413 231.743 234.924 C 232.589 235.417 233.276 236.122 233.769 236.95 C 234.279 237.813 234.526 238.781 234.526 239.785 L 234.526 259.634 C 234.544 260.621 234.279 261.607 233.769 262.452 C 233.276 263.298 232.571 263.985 231.743 264.478 C 230.88 264.988 229.912 265.235 228.925 265.235 L 209.076 265.235 Z M 209.2 260.568 L 228.802 260.568 C 229.084 260.568 229.348 260.444 229.524 260.251 C 229.718 260.057 229.824 259.775 229.824 259.493 L 229.824 239.909 C 229.824 239.627 229.718 239.363 229.524 239.151 C 229.348 238.94 229.084 238.834 228.802 238.834 L 209.2 238.834 C 208.601 238.852 208.125 239.327 208.125 239.909 L 208.125 259.511 C 208.125 260.092 208.601 260.568 209.2 260.568 Z" style="fill: rgb(55, 79, 232);" transform="matrix(1, 0, 0, 1, 5.684341886080802e-14, 0)"/>
  <path class="st1" d="M 256.119 265.235 L 256.119 238.817 L 242.909 238.817 L 242.909 234.149 L 273.995 234.149 L 273.995 238.817 L 260.786 238.817 L 260.786 265.235 L 256.119 265.235 Z" style="fill: rgb(55, 79, 232);" transform="matrix(1, 0, 0, 1, 5.684341886080802e-14, 0)"/>
  <path class="st1" d="M 339.147 234.167 L 363.311 234.167 C 364.297 234.149 365.283 234.413 366.146 234.924 C 366.992 235.417 367.679 236.122 368.172 236.95 C 368.682 237.813 368.947 238.781 368.929 239.785 L 368.929 246.126 C 368.929 246.496 368.894 246.883 368.823 247.253 C 368.753 247.623 368.63 247.957 368.471 248.292 C 368.982 248.996 369.44 249.754 369.792 250.564 C 370.091 251.233 370.25 251.955 370.25 252.695 L 370.25 259.652 C 370.268 260.638 370.003 261.624 369.493 262.47 C 368.999 263.315 368.295 264.02 367.45 264.495 C 366.587 265.006 365.6 265.253 364.596 265.253 L 339.182 265.253 L 339.147 234.167 Z M 344.888 247.059 L 363.187 247.059 C 363.469 247.059 363.733 246.936 363.909 246.742 C 364.103 246.548 364.209 246.267 364.209 245.985 L 364.209 239.891 C 364.209 239.609 364.103 239.345 363.909 239.134 C 363.733 238.922 363.469 238.817 363.187 238.817 L 344.888 238.817 C 344.289 238.834 343.814 239.31 343.814 239.891 L 343.814 245.985 C 343.831 246.584 344.307 247.059 344.888 247.059 Z M 344.888 260.568 L 364.491 260.568 C 364.772 260.568 365.037 260.444 365.213 260.251 C 365.407 260.057 365.512 259.775 365.512 259.493 L 365.512 252.801 C 365.512 252.519 365.407 252.255 365.213 252.043 C 365.037 251.832 364.772 251.726 364.491 251.726 L 344.888 251.726 C 344.289 251.744 343.814 252.22 343.814 252.801 L 343.814 259.493 C 343.831 260.092 344.307 260.568 344.888 260.568 Z" style="fill: rgb(55, 79, 232);" transform="matrix(1, 0, 0, 1, 5.684341886080802e-14, 0)"/>
  <path class="st1" d="M 391.42 265.235 L 391.42 253.576 L 377.083 234.149 L 382.561 234.149 L 393.745 248.257 L 404.876 234.149 L 410.406 234.149 L 396.07 253.576 L 396.07 265.235 L 391.42 265.235 Z" style="fill: rgb(55, 79, 232);" transform="matrix(1, 0, 0, 1, 5.684341886080802e-14, 0)"/>
  <path class="st1" d="M 430.396 265.235 L 430.396 238.817 L 417.187 238.817 L 417.187 234.149 L 448.255 234.149 L 448.255 238.817 L 435.045 238.817 L 435.045 265.235 L 430.396 265.235 Z" style="fill: rgb(55, 79, 232);" transform="matrix(1, 0, 0, 1, 5.684341886080802e-14, 0)"/>
  <polygon class="st1" points="300.359 242.304 293.49 234.167 288.083 234.167 288.083 235.03 297.312 246.002" style="fill: rgb(55, 79, 232);" transform="matrix(1, 0, 0, 1, 5.684341886080802e-14, 0)"/>
  <polygon class="st0" points="306.523 249.701 318.869 235.03 318.869 234.167 313.462 234.167 305.132 244.1 300.429 249.701 300.429 249.701 288.083 264.372 288.083 265.235 293.49 265.235 303.458 253.364 313.462 265.235 318.904 265.235 318.904 264.372" style="fill: rgb(55, 79, 232);" transform="matrix(1, 0, 0, 1, 5.684341886080802e-14, 0)"/>
  <polygon class="st0" points="456.779 234.167 456.779 238.817 461.482 238.817 462.415 238.817 485.258 238.817 485.258 234.167" style="fill: rgb(55, 79, 232);" transform="matrix(1, 0, 0, 1, 5.684341886080802e-14, 0)"/>
  <polygon class="st1" points="461.482 252.026 480.591 252.026 480.591 247.376 461.482 247.376 461.482 247.359 456.779 247.359 456.779 265.235 485.258 265.235 485.258 260.568 461.482 260.568" style="fill: rgb(55, 79, 232);" transform="matrix(1, 0, 0, 1, 5.684341886080802e-14, 0)"/>
</svg>