<svg width="24px" height="24px" viewBox="0 0 24 24" fill="none" xmlns="http://www.w3.org/2000/svg">
<path d="M4 19L7.07189 15.2455C7.69252 14.4869 8.00284 14.1076 8.40938 14.0633C8.47386 14.0563 8.53887 14.0555 8.60349 14.0611C9.01094 14.0961 9.32986 14.4682 9.9677 15.2123C10.6306 15.9857 10.962 16.3723 11.381 16.4005C11.4473 16.4049 11.5139 16.4027 11.5797 16.394C11.996 16.3387 12.3016 15.9312 12.9127 15.1164L14.4826 13.0232C15.182 12.0906 15.5317 11.6243 16.0157 11.6119C16.4996 11.5995 16.8728 12.0473 17.619 12.9428L21 17M21 17V9M21 17C21 19.2091 19.2091 21 17 21H11C7.22876 21 5.34315 21 4.17157 19.8284C3 18.6569 3 16.7712 3 13V11C3 7.22876 3 5.34315 4.17157 4.17157C5.34315 3 7.22876 3 11 3H15" stroke="black" stroke-width="1.3" stroke-linecap="round" class="my-path"/>
<path d="M12 9C12 10.1046 11.1046 11 10 11C8.89543 11 8 10.1046 8 9C8 7.89543 8.89543 7 10 7C11.1046 7 12 7.89543 12 9Z" stroke="black" stroke-width="1.3" class="my-path"/>
<path d="M19 3L19 7" stroke="black" stroke-width="1.3" stroke-linecap="round" class="my-path"/>
<path d="M21 5H17" stroke="black" stroke-width="1.3" stroke-linecap="round" class="my-path"/>
</svg>