<svg width="24" height="24" viewBox="0 0 24 24" fill="none" xmlns="http://www.w3.org/2000/svg">
<path d="M21 12V8.5C21 6.61438 21 5.67157 20.4142 5.08578C19.8284 4.5 18.8856 4.5 17 4.5L6.99999 4.50002C5.11438 4.50002 4.17157 4.50002 3.58579 5.08581C3 5.67159 3 6.6144 3 8.50002V17C3 18.8856 3 19.8284 3.58579 20.4142C4.17158 21 5.11439 21 7.00002 21L11 21" stroke="black" stroke-width="1.3" stroke-linecap="round" class="my-path"/>
<path d="M3 10H21" stroke="black" stroke-width="1.3" class="my-path"/>
<path d="M8.05 14H8" stroke="black" stroke-width="1.3" stroke-linecap="round" class="my-path"/>
<path d="M8.05 17H8" stroke="black" stroke-width="1.3" stroke-linecap="round" class="my-path"/>
<path d="M12.05 14H12" stroke="black" stroke-width="1.3" stroke-linecap="round" class="my-path"/>
<path d="M8 3V6" stroke="black" stroke-width="1.3" stroke-linecap="round" class="my-path"/>
<path d="M16 3V6" stroke="black" stroke-width="1.3" stroke-linecap="round" class="my-path"/>
<path d="M18.0746 14.9952L14.8423 18.2722C14.6397 18.4775 14.5385 18.5802 14.4712 18.7049C14.4039 18.8296 14.3741 18.9697 14.3145 19.25L14.0011 20.7239C13.9718 20.8615 13.9572 20.9303 13.9968 20.9684C14.0364 21.0064 14.1058 20.9902 14.2445 20.9579L15.7466 20.6071C16.021 20.5431 16.1582 20.511 16.2799 20.4443C16.4016 20.3776 16.5017 20.2796 16.7018 20.0836L19.9889 16.8647C20.2082 16.6499 20.3179 16.5424 20.3845 16.4298C20.5613 16.1309 20.5677 15.7629 20.4013 15.4583C20.3387 15.3436 20.2327 15.2326 20.0209 15.0107C19.7953 14.7743 19.6825 14.6561 19.5641 14.5857C19.2495 14.3986 18.8564 14.3954 18.5386 14.5775C18.419 14.6461 18.3042 14.7624 18.0746 14.9952Z" stroke="black" stroke-width="1.3" class="my-path"/>
<path d="M19 18L17 16" stroke="black" stroke-width="1.3" class="my-path"/>
</svg>