<svg width="24" height="24" viewBox="0 0 24 24" fill="none" xmlns="http://www.w3.org/2000/svg">
<path d="M13.5 3H10.5C7.21252 3 5.56878 3 4.46243 3.90796C4.25989 4.07418 4.07418 4.25989 3.90796 4.46243C3 5.56878 3 7.21252 3 10.5V14.6667C3 16.5076 4.49238 18 6.33333 18H6.5C7.32843 18 8 18.6716 8 19.5C8 20.118 8.70557 20.4708 9.2 20.1L11 18.75C11.4623 18.4033 11.6934 18.23 11.9584 18.1296C12.0086 18.1106 12.0595 18.0936 12.111 18.0787C12.3833 18 12.6722 18 13.25 18H13.5C16.7875 18 18.4312 18 19.5376 17.092C19.7401 16.9258 19.9258 16.7401 20.092 16.5376C21 15.4312 21 13.7875 21 10.5C21 7.21252 21 5.56878 20.092 4.46243C19.9258 4.25989 19.7401 4.07418 19.5376 3.90796C18.4312 3 16.7875 3 13.5 3Z" stroke="black" stroke-width="1.3" class="my-path"/>
<path d="M7 8H17" stroke="black" stroke-width="1.3" stroke-linecap="round" class="my-path"/>
<path d="M7 12H12" stroke="black" stroke-width="1.3" stroke-linecap="round" class="my-path"/>
</svg>