<svg width="24" height="24" viewBox="0 0 24 24" fill="none" xmlns="http://www.w3.org/2000/svg">
<path d="M20.9976 5C20.9976 5 19 7 12 7C5 7 3 5 3 5M20.9976 5C20.9976 3.26121 16.9706 2 12 2C7.02944 2 3 3.26121 3 5M20.9976 5V17.443C20.9976 18.6642 20.9976 19.2749 20.6352 19.7918C20.2728 20.3086 19.7709 20.4906 18.7672 20.8545C13.5047 22.7626 8.3784 21.9557 5.15999 20.8229C4.21042 20.4886 3.73563 20.3215 3.36782 19.8021C3 19.2827 3 18.6941 3 17.517V14.9391M3 5V10M3 10C5.83333 11.5 13.4 13.6 21 10M3 10V14.9391M3 14.9391C5.66667 16.4594 13 18.6 21 15M3 7.5C4 8.16667 7 9.5 10 9.5M11 9.5H12.5M3 12.5044C4 13.1711 7 14.5044 10 14.5044M11 14.5044L12.5 14.5M3 17.5084C4 18.1751 7 19.5 10 19.5084M11 19.5084L12.5 19.5" stroke="black" stroke-width="1.3" class="my-path"/>
</svg>