<svg width="24" height="24" viewBox="0 0 24 24" fill="none" xmlns="http://www.w3.org/2000/svg">
<path d="M16 3V5.63636C16 6.38948 16.6105 7 17.3636 7H20" stroke="black" stroke-width="1.3" class="my-path"/>
<path d="M7 11H13" stroke="black" stroke-width="1.3" stroke-linecap="round" class="my-path"/>
<path d="M7 15H11" stroke="black" stroke-width="1.3" stroke-linecap="round" class="my-path"/>
<path d="M7 7H11" stroke="black" stroke-width="1.3" stroke-linecap="round" class="my-path"/>
<path d="M18.0746 13.995L14.8423 17.272C14.6397 17.4773 14.5385 17.5799 14.4712 17.7046C14.4039 17.8293 14.3741 17.9695 14.3145 18.2498L14.0011 19.7236C13.9718 19.8612 13.9572 19.93 13.9968 19.9681C14.0364 20.0062 14.1058 19.99 14.2445 19.9576L15.7466 19.6069C16.021 19.5428 16.1582 19.5108 16.2799 19.4441C16.4016 19.3774 16.5017 19.2794 16.7018 19.0834L19.9889 15.8644C20.2082 15.6496 20.3179 15.5422 20.3845 15.4296C20.5613 15.1307 20.5677 14.7626 20.4013 14.4581C20.3387 14.3433 20.2327 14.2324 20.0209 14.0104C19.7953 13.774 19.6825 13.6558 19.5641 13.5854C19.2495 13.3983 18.8564 13.3952 18.5386 13.5773C18.419 13.6458 18.3042 13.7622 18.0746 13.995Z" stroke="black" stroke-width="1.3" class="my-path"/>
<path d="M19 17L17 15" stroke="black" stroke-width="1.3" class="my-path"/>
<path d="M11 21H10C7.17157 21 5.75736 21 4.87868 20.1213C4 19.2426 4 17.8284 4 15V9C4 6.17157 4 4.75736 4.87868 3.87868C5.75736 3 7.17157 3 10 3H15.3431C16.1606 3 16.5694 3 16.9369 3.15224C17.3045 3.30448 17.5935 3.59351 18.1716 4.17157L18.8284 4.82843C19.4065 5.40647 19.6955 5.69552 19.8478 6.06306C20 6.4306 20 6.83935 20 7.65685V11" stroke="black" stroke-width="1.3" stroke-linecap="round" class="my-path"/>
</svg>