<svg width="24" height="24" viewBox="0 0 24 24" fill="none" xmlns="http://www.w3.org/2000/svg">
<path d="M14 5C14 6.10457 13.1046 7 12 7C10.8954 7 10 6.10457 10 5C10 3.89543 10.8954 3 12 3C13.1046 3 14 3.89543 14 5Z"  stroke="black" stroke-width="1.3" stroke-linecap="round" class="my-path"/>
<path d="M7 17C7 18.1046 6.10457 19 5 19C3.89543 19 3 18.1046 3 17C3 15.8954 3.89543 15 5 15C6.10457 15 7 15.8954 7 17Z"  stroke="black" stroke-width="1.3" stroke-linecap="round" class="my-path"/>
<path d="M21 17C21 18.1046 20.1046 19 19 19C17.8954 19 17 18.1046 17 17C17 15.8954 17.8954 15 19 15C20.1046 15 21 15.8954 21 17Z"  stroke="black" stroke-width="1.3" stroke-linecap="round" class="my-path"/>
<path d="M4 12.9624C4 9.98729 5.60879 7.38975 8 6M16 6C18.3912 7.38975 20 9.98729 20 12.9624M8 19.9247C9.17669 20.6086 10.5429 21 12 21C13.4571 21 14.8233 20.6086 16 19.9247" stroke="black" stroke-width="null" stroke-linecap="round" class="my-path"/>
</svg>